<svg width="166" height="153" viewBox="0 0 166 153" fill="none" xmlns="http://www.w3.org/2000/svg">
<path d="M3 72.6322H39.3303C44.0275 45.3295 67.9541 35.8126 79.3303 34.4671V4.00836C61.3486 4.13069 23.5505 4.30194 16.211 4.00836C8.87156 3.71478 4.34557 11.2255 3 15.0175V72.6322Z" fill="#E88CEA" stroke="black" stroke-width="6"/>
<path d="M163 72.6406H126.67C121.972 45.3378 98.0459 35.821 86.6697 34.4754V4.01672C104.651 4.13905 142.45 4.3103 149.789 4.01672C157.128 3.72314 161.654 11.2338 163 15.0259V72.6406Z" fill="#71EBB8" stroke="black" stroke-width="6"/>
<path d="M163 80.7056H126.67C121.972 108.008 98.0459 117.525 86.6697 118.871V149.329C104.651 149.207 142.45 149.036 149.789 149.329C157.128 149.623 161.654 142.112 163 138.32V80.7056Z" fill="#EDEF80" stroke="black" stroke-width="6"/>
<path d="M3 80.7056H39.3303C44.0275 108.008 67.9541 117.525 79.3303 118.871V149.329C61.3486 149.207 23.5505 149.036 16.211 149.329C8.87156 149.623 4.34557 142.112 3 138.32V80.7056Z" fill="#79E9F0" stroke="black" stroke-width="6"/>
<path d="M62.3853 75.935C62.3853 78.8205 59.9069 81.3753 56.578 81.3753C53.2491 81.3753 50.7706 78.8205 50.7706 75.935C50.7706 73.0494 53.2491 70.4946 56.578 70.4946C59.9069 70.4946 62.3853 73.0494 62.3853 75.935Z" fill="#FC5454" stroke="black" stroke-width="6"/>
<path d="M89.5413 75.935C89.5413 78.8205 87.0629 81.3753 83.734 81.3753C80.4051 81.3753 77.9266 78.8205 77.9266 75.935C77.9266 73.0494 80.4051 70.4946 83.734 70.4946C87.0629 70.4946 89.5413 73.0494 89.5413 75.935Z" fill="#7BF970" stroke="black" stroke-width="6"/>
<path d="M116.697 75.935C116.697 78.8205 114.219 81.3753 110.89 81.3753C107.561 81.3753 105.083 78.8205 105.083 75.935C105.083 73.0494 107.561 70.4946 110.89 70.4946C114.219 70.4946 116.697 73.0494 116.697 75.935Z" fill="#4A64EE" stroke="black" stroke-width="6"/>
</svg>
